<?xml version="1.0" encoding="iso-8859-1"?>
<!-- Generator: Adobe Illustrator 19.0.0, SVG Export Plug-In . SVG Version: 6.00 Build 0)  -->
<svg version="1.1" id="Layer_1" xmlns="http://www.w3.org/2000/svg" xmlns:xlink="http://www.w3.org/1999/xlink" x="0px" y="0px"
	 viewBox="0 0 392.727 392.727" style="enable-background:new 0 0 392.727 392.727;" xml:space="preserve">
<path style="fill:#56ACE0;" d="M196.331,127.806c-43.895,0-80.226,32.905-85.527,75.313h171.055
	C276.558,160.711,240.226,127.806,196.331,127.806z"/>
<g>
	<path style="fill:#FFC10D;" d="M219.669,45.705c0-13.511-10.408-24.501-23.337-24.501s-23.337,10.99-23.337,24.501
		s10.408,24.501,23.337,24.501C209.261,70.141,219.669,59.152,219.669,45.705z"/>
	<rect x="21.851" y="327.176" style="fill:#FFC10D;" width="43.572" height="43.572"/>
</g>
<rect x="174.545" y="327.176" style="fill:#FFFFFF;" width="43.572" height="43.572"/>
<rect x="327.176" y="327.176" style="fill:#FFC10D;" width="43.572" height="43.572"/>
<g>
	<path style="fill:#194F82;" d="M196.331,92.638c24.889,0,45.123-20.816,45.123-46.287S221.22,0.065,196.331,0.065
		s-45.123,20.816-45.123,46.287S171.442,92.638,196.331,92.638z M196.331,21.85c12.929,0,23.337,10.99,23.337,24.501
		s-10.408,24.501-23.337,24.501c-12.8,0-23.337-10.99-23.337-24.501S183.531,21.85,196.331,21.85z"/>
	<path style="fill:#194F82;" d="M381.737,305.39h-21.85v-40.21c0-6.012-4.848-10.925-10.925-10.925H207.257v-29.35h86.238
		c6.012,0,10.925-4.848,10.925-10.925c0-59.604-48.42-108.024-108.024-108.024S88.372,154.376,88.372,213.98
		c0,6.012,4.848,10.925,10.925,10.925h86.238v29.35H43.636c-6.012,0-10.925,4.848-10.925,10.925v40.21H10.925
		C4.913,305.39,0,310.238,0,316.315v65.422c0,6.012,4.848,10.925,10.925,10.925h65.422c6.012,0,10.925-4.848,10.925-10.925V316.25
		c0-6.012-4.848-10.925-10.925-10.925H54.626V276.04h130.844v29.285h-21.786c-6.012,0-10.925,4.848-10.925,10.925v65.422
		c0,6.012,4.848,10.925,10.925,10.925h65.422c6.012,0,10.925-4.848,10.925-10.925V316.25c0-6.012-4.848-10.925-10.925-10.925
		h-21.786V276.04h130.844v29.285H316.38c-6.012,0-10.925,4.848-10.925,10.925v65.422c0,6.012,4.848,10.925,10.925,10.925h65.422
		c6.012,0,10.925-4.848,10.925-10.925V316.25C392.598,310.238,387.749,305.39,381.737,305.39z M196.331,127.806
		c43.895,0,80.226,32.905,85.527,75.313H110.804C116.105,160.711,152.436,127.806,196.331,127.806z M65.487,327.176v43.572H21.851
		v-43.572H65.487z M218.117,327.176v43.572h-43.572v-43.572H218.117z M370.812,370.812H327.24V327.24h43.572V370.812z"/>
</g>
<g>
</g>
<g>
</g>
<g>
</g>
<g>
</g>
<g>
</g>
<g>
</g>
<g>
</g>
<g>
</g>
<g>
</g>
<g>
</g>
<g>
</g>
<g>
</g>
<g>
</g>
<g>
</g>
<g>
</g>
</svg>
